




<svg width="24" height="24" viewBox="0 0 24 24"  xmlns="http://www.w3.org/2000/svg"><g clip-path="url(#clip0__RWEgwhTK)"><path d="M22.7 11.4009C22.2 9.50088 21.6 8.30088 20.5 7.60088C19.8 7.10088 18.9 6.80088 17.8 6.80088C19.4 5.20088 20 2.90088 19.4 0.700883C19.3 0.500883 19.1 0.300883 18.9 0.200883C16.6 -0.399117 14.2 0.200883 12.5 1.80088C11.8 2.50088 11.3 3.30088 11 4.20088C9.4 2.10088 6.8 2.00088 6.7 2.00088C6.3 2.00088 6 2.30088 6 2.70088C6 3.10088 6.3 3.40088 6.7 3.40088C6.8 3.40088 9.9 3.50088 10.8 6.90088C10.8 7.10088 10.8 7.30088 10.9 7.40088C9.1 7.30088 7.4 6.90088 7.3 6.90088C5.7 6.70088 4.4 6.90088 3.5 7.60088C2.5 8.30088 1.8 9.60088 1.3 11.4009C0.9 13.1009 0.9 14.9009 1.3 16.7009C1.6 18.2009 2.3 19.7009 3.1 20.9009C3.9 22.1009 5 23.0009 6.2 23.5009C7.6 24.1009 9 24.1009 10.3 23.5009C11.3 23.0009 12.6 23.0009 13.7 23.5009C14.4 23.8009 15.1 24.0009 15.8 24.0009C16.5 24.0009 17.2 23.8009 17.9 23.5009C19 23.0009 20.1 22.1009 21 20.9009C21.8 19.7009 22.5 18.2009 22.8 16.7009C23.1 14.9009 23.1 13.1009 22.7 11.4009ZM13.7 2.80088C14.9 1.70088 16.6 1.20088 18.2 1.40088C18.5 3.00088 18 4.60088 16.8 5.70088C15.9 6.60088 14.7 7.10088 13.5 7.10088C14.1 6.10088 15.2 5.10088 15.7 4.70088C16 4.50088 16.1 4.00088 15.8 3.70088C15.5 3.40088 15.1 3.30088 14.8 3.60088C14.6 3.80088 13.1 4.90088 12.3 6.30088C12.2 5.10088 12.6 3.80088 13.7 2.80088ZM21.3 16.4009C21 17.8009 20.4 19.1009 19.7 20.1009C19 21.1009 18.2 21.8009 17.3 22.2009C16.3 22.6009 15.3 22.6009 14.4 22.2009C13.7 21.9009 12.9 21.7009 12.1 21.7009C11.3 21.7009 10.5 21.9009 9.8 22.2009C8.9 22.6009 7.9 22.6009 6.9 22.2009C6 21.8009 5.1 21.0009 4.5 20.1009C3.8 19.1009 3.2 17.7009 2.9 16.4009C2.5 14.8009 2.5 13.2009 2.9 11.7009C3.3 10.2009 3.8 9.20088 4.5 8.70088C5 8.20088 5.8 8.10088 7 8.30088C7.1 8.30088 9.9 9.00088 12 9.00088C12.1 9.00088 12.1 9.00088 12.2 9.00088C14.3 8.90088 16.8 8.40088 16.8 8.40088C18 8.20088 18.9 8.30088 19.5 8.80088C20.2 9.30088 20.7 10.3009 21.1 11.8009C21.6 13.2009 21.6 14.8009 21.3 16.4009Z" ></path><path d="M5.60012 14.3016C5.60012 13.9016 5.30012 13.6016 4.90012 13.6016C4.50012 13.6016 4.10012 13.9016 4.10012 14.3016C3.90012 16.7016 5.30012 18.5016 5.30012 18.5016C5.40012 18.7016 5.70012 18.8016 5.90012 18.8016C6.10012 18.8016 6.20012 18.8016 6.30012 18.7016C6.60012 18.5016 6.70012 18.0016 6.50012 17.7016C6.50012 17.6016 5.40012 16.2016 5.60012 14.3016Z" ></path><path d="M4.69995 12.7011C4.79995 12.7011 4.79995 12.7011 4.69995 12.7011C5.19995 12.7011 5.49995 12.4011 5.49995 12.1011C5.49995 12.0011 5.59995 11.4011 5.89995 11.1011C6.19995 10.8011 6.09995 10.4011 5.79995 10.1011C5.49995 9.80106 4.99995 9.90106 4.79995 10.2011C4.19995 10.9011 4.09995 11.8011 4.09995 11.9011C3.99995 12.3011 4.29995 12.7011 4.69995 12.7011Z" ></path></g><defs><clipPath id="clip0__RWEgwhTK"><rect x="1" width="22" height="24" fill="white"></rect></clipPath></defs></svg>