<svg width="24" height="24" viewBox="0 0 24 24" fill="none" xmlns="http://www.w3.org/2000/svg"><g clip-path="url(#clip0__Hcq9F9pE)"><path d="M22.7 11.4C22.2 9.50003 21.6 8.30003 20.5 7.60003C19.8 7.10003 18.9 6.80003 17.8 6.80003C19.4 5.20003 20 2.90003 19.4 0.700029C19.3 0.500029 19.1 0.300029 18.9 0.200029C16.6 -0.399971 14.2 0.200029 12.5 1.80003C11.8 2.50003 11.3 3.30003 11 4.20003C9.4 2.10003 6.8 2.00003 6.7 2.00003C6.3 2.00003 6 2.30003 6 2.70003C6 3.10003 6.3 3.40003 6.7 3.40003C6.8 3.40003 9.9 3.50003 10.8 6.90003C10.8 7.10003 10.8 7.30003 10.9 7.40003C9.1 7.30003 7.4 6.90003 7.3 6.90003C5.7 6.70003 4.4 6.90003 3.5 7.60003C2.5 8.30003 1.8 9.60003 1.3 11.4C0.9 13.1 0.9 14.9 1.3 16.7C1.6 18.2 2.3 19.7 3.1 20.9C3.9 22.1 5 23 6.2 23.5C7.6 24.1 9 24.1 10.3 23.5C11.3 23 12.6 23 13.7 23.5C14.4 23.8 15.1 24 15.8 24C16.5 24 17.2 23.8 17.9 23.5C19 23 20.1 22.1 21 20.9C21.8 19.7 22.5 18.2 22.8 16.7C23.1 14.9 23.1 13.1 22.7 11.4ZM13.7 2.80003C14.9 1.70003 16.6 1.20003 18.2 1.40003C18.5 3.00003 18 4.60003 16.8 5.70003C15.9 6.60003 14.7 7.10003 13.5 7.10003C14.1 6.10003 15.2 5.10003 15.7 4.70003C16 4.50003 16.1 4.00003 15.8 3.70003C15.5 3.40003 15.1 3.30003 14.8 3.60003C14.6 3.80003 13.1 4.90003 12.3 6.30003C12.2 5.10003 12.6 3.80003 13.7 2.80003ZM21.3 16.4C21 17.8 20.4 19.1 19.7 20.1C19 21.1 18.2 21.8 17.3 22.2C16.3 22.6 15.3 22.6 14.4 22.2C13.7 21.9 12.9 21.7 12.1 21.7C11.3 21.7 10.5 21.9 9.8 22.2C8.9 22.6 7.9 22.6 6.9 22.2C6 21.8 5.1 21 4.5 20.1C3.8 19.1 3.2 17.7 2.9 16.4C2.5 14.8 2.5 13.2 2.9 11.7C3.3 10.2 3.8 9.20003 4.5 8.70003C5 8.20003 5.8 8.10003 7 8.30003C7.1 8.30003 9.9 9.00003 12 9.00003C12.1 9.00003 12.1 9.00003 12.2 9.00003C14.3 8.90003 16.8 8.40003 16.8 8.40003C18 8.20003 18.9 8.30003 19.5 8.80003C20.2 9.30003 20.7 10.3 21.1 11.8C21.6 13.2 21.6 14.8 21.3 16.4Z" fill="#222222"></path><path d="M5.6 14.3C5.6 13.9 5.3 13.6 4.9 13.6C4.5 13.6 4.1 13.9 4.1 14.3C3.9 16.7 5.3 18.5 5.3 18.5C5.4 18.7 5.7 18.8 5.9 18.8C6.1 18.8 6.2 18.8 6.3 18.7C6.6 18.5 6.7 18 6.5 17.7C6.5 17.6 5.4 16.2 5.6 14.3Z" fill="#222222"></path><path d="M4.69995 12.7001C4.79995 12.7001 4.79995 12.7001 4.69995 12.7001C5.19995 12.7001 5.49995 12.4001 5.49995 12.1001C5.49995 12.0001 5.59995 11.4001 5.89995 11.1001C6.19995 10.8001 6.09995 10.4001 5.79995 10.1001C5.49995 9.80008 4.99995 9.90008 4.79995 10.2001C4.19995 10.9001 4.09995 11.8001 4.09995 11.9001C3.99995 12.3001 4.29995 12.7001 4.69995 12.7001Z" fill="#222222"></path></g><defs><clipPath id="clip0__Hcq9F9pE"><rect x="1" width="22" height="24" fill="white"></rect></clipPath></defs></svg>