<svg width="8px" height="16px" viewBox="0 0 8 16" version="1.1" xmlns="http://www.w3.org/2000/svg" xmlns:xlink="http://www.w3.org/1999/xlink"><title> 06 Icons + Badges/02 Utility Icon/02 Small</title><desc>Created with Sketch.</desc><g id="00-Components__61huxes8" stroke="none" stroke-width="1" fill="none" fill-rule="evenodd"><g id="00-Components/05-Navigation/02-Footer/02📱Mobile---Tablet__61huxes8" transform="translate(-332.000000, -70.000000)" fill="#6D7378"><g id="Social-links__61huxes8" transform="translate(328.000000, 32.000000)"><g id="FB__61huxes8" transform="translate(0.000000, 36.000000)"><g id="-06-Icons-+-Badges/02-Utility-Icon/01-Tiny__61huxes8" transform="translate(0.000000, 2.000000)"><g id="-06-Icons-+-Badges/02-Utility-Icon/_/Social/Facebook__61huxes8"><path d="M8.9201551,4.80692697 L8.9201551,3.52771862 C8.89325268,3.32784887 8.95672615,3.12637724 9.09333654,2.97802207 C9.22994692,2.82966689 9.42551205,2.74982965 9.62691772,2.76019361 L11.4210074,2.76019361 L11.4210074,0.0210887374 L8.9505363,0.00989566435 C8.03961444,-0.0627887677 7.14262668,0.267575435 6.49646042,0.913741695 C5.85029416,1.55990796 5.51992996,2.45689571 5.59261439,3.36781757 L5.59261439,4.80692697 L4,4.80692697 L4,8.00494783 L5.59901043,8.00494783 L5.59901043,16 L8.7970313,16 L8.7970313,8.00494783 L11.1699628,8.00494783 L11.2850915,6.74972464 L11.4609827,4.80692697 L8.9201551,4.80692697 Z" id="Icon__61huxes8"></path></g></g></g></g></g></g></svg>