<svg width="16px" height="16px" viewBox="0 0 16 16" version="1.1" xmlns="http://www.w3.org/2000/svg" xmlns:xlink="http://www.w3.org/1999/xlink"><title> 06 Icons + Badges/02 Utility Icon/02 Small</title><desc>Created with Sketch.</desc><g id="00-Components__aaGwHIRE" stroke="none" stroke-width="1" fill="none" fill-rule="evenodd"><g id="00-Components/05-Navigation/02-Footer/02📱Mobile---Tablet__aaGwHIRE" transform="translate(-328.000000, -142.000000)" fill="#6D7378"><g id="Social-links__aaGwHIRE" transform="translate(328.000000, 32.000000)"><g id="IG__aaGwHIRE" transform="translate(0.000000, 108.000000)"><g id="-06-Icons-+-Badges/02-Utility-Icon/01-Tiny__aaGwHIRE" transform="translate(0.000000, 2.000000)"><g id="-06-Icons-+-Badges/02-Utility-Icon/_/Social/Instagram__aaGwHIRE"><path d="M12.908,0 L3.092,0 C1.38479272,0.00110320375 0.00110320375,1.38479272 0,3.092 L0,12.908 C0.0022036836,14.6147508 1.38524918,15.9977963 3.092,16 L12.908,16 C14.6147508,15.9977963 15.9977963,14.6147508 16,12.908 L16,3.092 C15.9977963,1.38524918 14.6147508,0.0022036836 12.908,0 Z M13.794,1.844 L14.148,1.844 L14.148,4.554 L11.446,4.554 L11.436,1.842 L13.794,1.844 Z M5.716,6.358 C6.24102845,5.61762574 7.0923608,5.17767404 8,5.17767404 C8.9076392,5.17767404 9.75897155,5.61762574 10.284,6.358 C10.344,6.444 10.4,6.534 10.452,6.626 C10.6894988,7.04506605 10.8148718,7.51831469 10.816,8 C10.816,9.55523386 9.55523386,10.816 8,10.816 C6.44476614,10.816 5.184,9.55523386 5.184,8 C5.18512824,7.51831469 5.31050125,7.04506605 5.548,6.626 C5.6,6.534 5.656,6.444 5.716,6.358 Z M14.442,12.908 C14.4408982,13.754748 13.754748,14.4408982 12.908,14.442 L3.092,14.442 C2.245252,14.4408982 1.55910182,13.754748 1.558,12.908 L1.558,6.358 L3.946,6.358 C3.73611338,6.88007106 3.62751423,7.43732044 3.626,8 C3.62600005,10.4156935 5.58430654,12.3739999 8,12.3739999 C10.4156935,12.3739999 12.3739999,10.4156935 12.374,8 C12.3756565,7.59402537 12.3190806,7.18991144 12.206,6.8 C12.1630943,6.64659227 12.1116814,6.49569212 12.052,6.348 L14.452,6.348 L14.452,12.898 L14.442,12.908 Z" id="Icon__aaGwHIRE"></path></g></g></g></g></g></g></svg>