<svg width="24" height="24" viewBox="0 0 24 24" fill="none" xmlns="http://www.w3.org/2000/svg"><g clip-path="url(#clip0__ICB6opys)"><path d="M15.5 8.79999C14.2 8.79999 13.1 9.89999 13.1 11.2C13.1 12.5 14.2 13.6 15.5 13.6C16.8 13.6 17.9 12.5 17.9 11.2C17.9 9.79999 16.8 8.79999 15.5 8.79999ZM15.5 12.2C14.9 12.2 14.4 11.7 14.4 11.1C14.4 10.5 14.9 9.99999 15.5 9.99999C16.1 9.99999 16.6 10.5 16.6 11.1C16.6 11.7 16.1 12.2 15.5 12.2Z" fill="#222222"></path><path d="M23.2999 9.6H20.6999C20.2999 8.3 19.4999 7.2 18.5999 6.3L18.4999 6.2V1.6C18.4999 1.4 18.3999 1.1 18.0999 1C17.8999 1 17.6999 1 17.4999 1.1L13.9999 3.9C13.3999 3.8 12.8999 3.7 12.3999 3.7C10.7999 3.7 9.19994 4.2 7.79994 5C7.39994 4.7 6.79994 4.5 6.19994 4.5C4.79994 4.4 3.59994 5.6 3.59994 7C3.59994 7.7 3.89994 8.3 4.29994 8.7C3.89994 9.6 3.59994 10.6 3.49994 11.6C3.19994 12.1 2.59994 12.8 2.19994 12.8C1.89994 12.8 1.49994 12.4 1.19994 11.7C1.09994 11.4 0.69994 11.2 0.29994 11.4C-6.02603e-05 11.5 -0.20006 11.9 -6.02603e-05 12.3C0.49994 13.5 1.29994 14.2 2.09994 14.2H2.19994C2.69994 14.2 3.19994 14 3.49994 13.7C3.79994 15.6 4.59994 17.4 5.99994 18.7V22.3C5.99994 22.7 6.29994 22.9 6.69994 22.9H10.1999C10.5999 22.9 10.8999 22.6 10.8999 22.3V21.1C11.3999 21.2 11.8999 21.2 12.3999 21.2C12.5999 21.2 12.8999 21.2 13.0999 21.2V22.3C13.0999 22.7 13.3999 22.9 13.7999 22.9H17.2999C17.6999 22.9 17.9999 22.6 17.9999 22.3V19.3C18.2999 19.1 18.4999 18.9 18.7999 18.6C19.4999 17.9 20.0999 17.1 20.4999 16.2H23.3999C23.7999 16.2 24.0999 15.9 24.0999 15.6V10.2C23.9999 9.9 23.6999 9.6 23.2999 9.6ZM6.29994 5.7C6.79994 5.7 7.19994 6 7.39994 6.4C7.49994 6.6 7.59994 6.8 7.59994 7C7.59994 7.7 6.99994 8.3 6.29994 8.3C6.09994 8.3 5.99994 8.3 5.79994 8.2C5.69994 8.2 5.69994 8.2 5.69994 8.1C5.19994 8 4.89994 7.5 4.89994 7C4.89994 6.3 5.49994 5.7 6.29994 5.7ZM9.59994 21.7H7.39994V19.8C8.09994 20.3 8.79994 20.6 9.59994 20.9V21.7ZM16.5999 21.7H14.3999V21C15.1999 20.8 15.8999 20.6 16.5999 20.2V21.7ZM22.6999 15H19.9999C19.6999 15 19.4999 15.2 19.3999 15.4C18.9999 16.3 18.4999 17.1 17.7999 17.8C16.3999 19.2 14.4999 20 12.3999 20C10.2999 20 8.49994 19.2 6.99994 17.8C5.59994 16.4 4.79994 14.5 4.79994 12.5C4.79994 11.5 4.99994 10.4 5.39994 9.5H5.49994C5.79994 9.6 5.99994 9.6 6.29994 9.6C6.79994 9.6 7.29994 9.5 7.59994 9.2L6.69994 10.1C6.39994 10.4 6.39994 10.8 6.69994 11C6.79994 11.1 6.99994 11.2 7.19994 11.2C7.39994 11.2 7.49994 11.1 7.69994 11L10.2999 8.4C10.5999 8.1 10.5999 7.7 10.2999 7.5C9.99994 7.3 9.59994 7.2 9.39994 7.5L8.49994 8.4C8.69994 8 8.89994 7.5 8.89994 7C8.89994 6.6 8.79994 6.3 8.69994 5.9C9.79994 5.3 11.0999 4.9 12.3999 4.9C12.8999 4.9 13.4999 5 14.0999 5.1C14.2999 5.1 14.4999 5.1 14.6999 5L17.1999 3V6.5C17.1999 6.7 17.2999 6.9 17.3999 7C17.4999 7.1 17.4999 7.1 17.5999 7.2L17.6999 7.3C18.5999 8.2 19.1999 9.3 19.5999 10.5C19.6999 10.8 19.8999 11 20.1999 11H22.5999V15H22.6999Z" fill="#222222"></path></g><defs><clipPath id="clip0__ICB6opys"><rect y="1" width="24" height="22" fill="white"></rect></clipPath></defs></svg>