<svg width="14px" height="16px" viewBox="0 0 14 16" version="1.1" xmlns="http://www.w3.org/2000/svg" xmlns:xlink="http://www.w3.org/1999/xlink"><title> 06 Icons + Badges/02 Utility Icon/02 Small</title><desc>Created with Sketch.</desc><g id="00-Components__qsPnJniZ" stroke="none" stroke-width="1" fill="none" fill-rule="evenodd"><g id="00-Components/05-Navigation/02-Footer/02📱Mobile---Tablet__qsPnJniZ" transform="translate(-329.000000, -178.000000)" fill="#6D7378"><g id="Social-links__qsPnJniZ" transform="translate(328.000000, 32.000000)"><g id="Pinterest__qsPnJniZ" transform="translate(0.000000, 144.000000)"><g id="-06-Icons-+-Badges/02-Utility-Icon/01-Tiny__qsPnJniZ" transform="translate(0.000000, 2.000000)"><g id="-06-Icons-+-Badges/02-Utility-Icon/_/Social/Pinterest__qsPnJniZ"><path d="M8.11384603,0.015916754 C3.60637794,0.015916754 1.33346318,3.14397174 1.33346318,5.75095062 C1.33017608,6.21549322 1.38931274,6.67837194 1.5092864,7.12716694 C1.71928086,8.07886437 2.37325941,8.871962 3.26751864,9.25942312 C3.36015253,9.30915606 3.47096717,9.31166043 3.56575324,9.26616312 C3.6605393,9.2206658 3.72789849,9.132638 3.74703652,9.02925454 C3.79019313,8.86941524 3.89408867,8.46182504 3.94044206,8.290797 C4.01550864,8.10916033 3.95988536,7.89975503 3.80457866,7.77931126 C3.56327723,7.50629032 3.38678855,7.18227242 3.28829775,6.83146425 C3.21206973,6.55396586 3.17442022,6.26729173 3.17641024,5.97952081 C3.18188517,4.76573842 3.68578669,3.60751012 4.57010665,2.77608011 C5.45442662,1.94465009 6.64149297,1.51304496 7.85330798,1.58234183 C8.85911794,1.45313422 9.87155262,1.76625322 10.6288048,2.44072886 C11.386057,3.1152045 11.8137692,4.08480741 11.8013385,5.0988063 C11.8029651,5.66820811 11.7440258,6.23616806 11.6255153,6.79310282 C11.2291139,8.63445148 10.1869617,9.98029834 8.79476142,9.98029834 C8.33860599,10.0118808 7.89460335,9.82472619 7.59869675,9.47613686 C7.30279016,9.12754753 7.19022602,8.65904512 7.29546884,8.21407414 C7.43133224,7.65943179 7.62793457,7.08401033 7.79576583,6.54375352 C7.98117528,6.03231363 8.09467915,5.49760818 8.13302674,4.95495094 C8.17168596,4.59661697 8.05297881,4.23913662 7.80765284,3.97510454 C7.56232687,3.71107247 7.21451677,3.56646362 6.85431239,3.57873462 C5.83933288,3.57873462 5.02415248,4.59371413 5.02415248,5.95394652 C5.02446657,6.18399018 5.04586802,6.41352076 5.08808819,6.63965709 C5.13416878,6.90457333 5.21421559,7.16244224 5.32624874,7.4068857 L4.10667493,12.4098556 C3.89148707,13.5621646 3.88174677,14.7434466 4.07790386,15.8991474 C4.08887292,15.9475379 4.12653303,15.9854031 4.17486328,15.9966348 C4.22319354,16.0078665 4.27369178,15.9904888 4.30487565,15.9518944 C5.05000607,15.0602462 5.62975023,14.0425814 6.01675449,12.9469156 C6.13343718,12.537727 6.68328435,10.4246516 6.68328435,10.4246516 C7.21769567,11.1673452 8.08640853,11.5957105 9.00095411,11.5675025 C11.489396,11.4933913 13.5630487,9.63837303 13.9128156,7.17352033 C14.0538705,6.55048558 14.1235825,5.91342521 14.1206981,5.27462952 C14.0347908,3.77568317 13.3500676,2.3741408 12.2204091,1.38516351 C11.0907505,0.396186227 9.61097872,-0.0972124426 8.11384603,0.015916754 Z" id="Path__qsPnJniZ"></path></g></g></g></g></g></g></svg>