




<svg width="24" height="24" viewBox="0 0 24 24"  xmlns="http://www.w3.org/2000/svg"><g clip-path="url(#clip0__TSQfmRiW)"><path fill-rule="evenodd" clip-rule="evenodd" d="M6.69766 2.81081C6.69766 2.36301 7.07249 2 7.53487 2H16.4651C16.9275 2 17.3023 2.36301 17.3023 2.81081V4.70269H22.0465C23.1254 4.70269 24 5.54972 24 6.59459V11.1297C24 11.872 23.5542 12.5315 22.8837 12.8392V20.1081C22.8837 21.153 22.0091 22 20.9302 22H3.06976C1.99088 22 1.11627 21.153 1.11627 20.1081V12.8392C0.445797 12.5315 0 11.872 0 11.1297V6.59459C0 5.54972 0.874607 4.70269 1.95349 4.70269H6.69766V2.81081ZM15.6279 3.62162V4.70269H8.37208V3.62162H15.6279ZM13.6744 13.2682V12.5405C13.6744 12.242 13.4245 12 13.1163 12H10.8837C10.5755 12 10.3256 12.242 10.3256 12.5405V13.2682L1.89105 11.3931C1.76428 11.3649 1.67442 11.2556 1.67442 11.1297V6.59459C1.67442 6.44532 1.79936 6.32432 1.95349 6.32432H22.0465C22.2006 6.32432 22.3256 6.44532 22.3256 6.59459V11.1297C22.3256 11.2556 22.2357 11.3649 22.1089 11.3931L13.6744 13.2682ZM13.6744 14.932V15.7838C13.6744 16.0823 13.4245 16.3243 13.1163 16.3243H10.8837C10.5755 16.3243 10.3256 16.0823 10.3256 15.7838V14.932L2.79069 13.2569V20.1081C2.79069 20.2574 2.91563 20.3784 3.06976 20.3784H20.9302C21.0844 20.3784 21.2093 20.2574 21.2093 20.1081V13.2569L13.6744 14.932ZM11.4419 15.2432V13.0811H12.5582V15.2432H11.4419Z" ></path></g><defs><clipPath id="clip0__TSQfmRiW"><rect width="24" height="24" fill="white"></rect></clipPath></defs></svg>