<svg width="24" height="24" viewBox="0 0 24 24" fill="none" xmlns="http://www.w3.org/2000/svg"><g clip-path="url(#clip0__opr115eT)"><path d="M11.4 10.4C11.1 10.1 10.7 10.1 10.4 10.4L4.40002 16.5C4.10002 16.8 4.10002 17.2 4.40002 17.5C4.50002 17.6 4.70002 17.7 4.90002 17.7C5.10002 17.7 5.30002 17.6 5.40002 17.5L11.4 11.4C11.7 11.1 11.7 10.7 11.4 10.4Z" fill="#222222"></path><path d="M12.4 12.4L6.40002 18.5C6.10002 18.8 6.10002 19.2 6.40002 19.5C6.50002 19.6 6.70002 19.7 6.90002 19.7C7.10002 19.7 7.30002 19.6 7.40002 19.5L13.4 13.4C13.7 13.1 13.7 12.7 13.4 12.4C13.1 12.2 12.7 12.2 12.4 12.4Z" fill="#222222"></path><path d="M23.2 0.800029C22.6 0.200029 21.8 -0.0999709 21 2.91411e-05C18.4 0.200029 15.4 3.60003 14.5 4.60003L10.4 5.00003C9.80001 5.10003 9.20001 5.50003 8.70001 5.90003L0.800012 13.9C-0.299988 15 -0.399988 16.9 0.700012 18L5.80001 23.2C6.30001 23.7 7.00001 24 7.80001 24C8.60001 24 9.30001 23.7 9.90001 23.1L17.8 15.1C18.3 14.6 18.6 14 18.6 13.3L19.1 8.40003C21.1 7.30003 23 5.70003 23.7 4.00003C24.2 2.80003 24 1.70003 23.2 0.800029ZM17.3 13.2C17.3 13.5 17.1 13.9 16.9 14.1L9.00001 22.1C8.70001 22.4 8.30001 22.6 7.90001 22.6C7.50001 22.6 7.20001 22.5 7.00001 22.2L1.80001 17C1.30001 16.4 1.30001 15.5 1.90001 14.9L9.80001 6.90003C10 6.70003 10.4 6.50003 10.7 6.50003L16.4 5.90003C16.8 5.80003 17.2 6.00003 17.5 6.30003C17.8 6.60003 17.9 7.00003 17.9 7.50003V7.60003C17.5 7.80003 17.2 7.90003 16.9 8.00003C16.8 7.80003 16.7 7.60003 16.5 7.40003C16 7.00003 15.5 6.70003 15 6.70003C14.4 6.70003 13.9 6.90003 13.5 7.30003C12.7 8.10003 12.7 9.50003 13.5 10.3C13.9 10.7 14.4 10.9 14.9 10.9C15.5 10.9 16 10.7 16.4 10.3C16.7 10 16.8 9.70003 16.9 9.30003C17.1 9.20003 17.4 9.20003 17.7 9.10003L17.3 13.2ZM15.2 9.40003C15.1 9.50003 14.9 9.50003 14.8 9.50003C14.7 9.50003 14.5 9.50003 14.4 9.30003C14.1 9.00003 14.2 8.60003 14.4 8.30003C14.5 8.20003 14.7 8.10003 14.9 8.10003C15 8.10003 15.1 8.10003 15.2 8.20003C15 8.30003 14.8 8.50003 14.8 8.80003C14.9 9.10003 15.1 9.30003 15.2 9.40003ZM22.4 3.50003C21.9 4.60003 20.6 5.80003 19.2 6.80003C19.1 6.20003 18.9 5.70003 18.4 5.30003C17.9 4.80003 17.2 4.50003 16.5 4.50003C17.8 3.20003 19.6 1.50003 21 1.40003C21.4 1.40003 21.8 1.50003 22.1 1.80003C22.5 2.10003 22.8 2.60003 22.4 3.50003Z" fill="#222222"></path></g><defs><clipPath id="clip0__opr115eT"><rect width="24" height="24" fill="white"></rect></clipPath></defs></svg>