<svg width="24" height="24" viewBox="0 0 24 24" fill="none" xmlns="http://www.w3.org/2000/svg"><path d="M23.8 3C23.7 2.9 23.5 2.8 23.3 2.8H21.2V0.7C21.2 0.3 20.9 0 20.5 0H3.5C3.1 0 2.8 0.3 2.8 0.7V2.8H0.7C0.5 2.8 0.3 2.9 0.2 3C0.1 3.2 0 3.3 0 3.5V6.3C0 8 1.2 9.5 2.9 9.8C3.4 13.2 7.5 16 10 17.4C8.3 18.2 7.1 19.9 7.1 21.9V23.3C7.1 23.7 7.4 24 7.8 24H16.3C16.7 24 17 23.7 17 23.3V21.9C17 19.9 15.8 18.2 14.1 17.4C16.5 16 20.7 13.2 21.2 9.8C22.7 9.5 24 8.1 24 6.4V3.5C24 3.3 23.9 3.2 23.8 3ZM1.4 6.4V4.2H2.8V8.3C2 8.1 1.4 7.3 1.4 6.4ZM15.5 21.9V22.6H8.5V21.9C8.5 20 10.1 18.4 12 18.4C13.9 18.4 15.5 19.9 15.5 21.9ZM19.8 9.2C19.8 12.5 14.4 15.8 12 16.9C9.6 15.8 4.2 12.5 4.2 9.2V3.5V1.4H19.7V9.2H19.8ZM22.6 6.4C22.6 7.3 22 8.1 21.2 8.4V4.2H22.6V6.4Z" fill="#222222"></path><path d="M12 5.09998C10.1 5.09998 8.5 6.69998 8.5 8.59998C8.5 10.5 10.1 12.1 12 12.1C13.9 12.1 15.5 10.5 15.5 8.59998C15.5 6.69998 13.9 5.09998 12 5.09998ZM12 10.8C10.8 10.8 9.9 9.89998 9.9 8.69998C9.9 7.49998 10.8 6.59998 12 6.59998C13.2 6.59998 14.1 7.49998 14.1 8.69998C14.1 9.89998 13.2 10.8 12 10.8Z" fill="#222222"></path></svg>