<svg width="24" height="24" viewBox="0 0 24 24" fill="none" xmlns="http://www.w3.org/2000/svg"><path d="M12 8.5C8.49998 8.5 5.59998 11.3 5.59998 14.9C5.59998 18.5 8.39998 21.3 12 21.3C15.6 21.3 18.4 18.5 18.4 14.9C18.4 11.3 15.5 8.5 12 8.5ZM16.9 14.1H15.5C15.4 12.8 15.1 11.6 14.7 10.7C15.9 11.5 16.7 12.7 16.9 14.1ZM11.3 10.2V14.1H9.89998C9.99998 12.3 10.6 10.8 11.3 10.2ZM11.3 15.5V19.4C10.6 18.8 9.99998 17.3 9.89998 15.5H11.3ZM12.7 19.4V15.5H14.1C14 17.4 13.4 18.8 12.7 19.4ZM12.7 14.1V10.2C13.4 10.8 14 12.3 14.1 14.1H12.7ZM9.29998 10.7C8.89998 11.6 8.59998 12.8 8.49998 14.1H7.09998C7.29998 12.7 8.09998 11.5 9.29998 10.7ZM7.09998 15.5H8.49998C8.59998 16.8 8.89998 18 9.29998 18.9C8.09998 18.2 7.29998 17 7.09998 15.5ZM14.7 18.9C15.1 18 15.4 16.8 15.5 15.5H16.9C16.7 17 15.9 18.2 14.7 18.9Z" fill="#222222"></path><path d="M23.3 0H0.7C0.3 0 0 0.3 0 0.7V23.3C0 23.7 0.3 24 0.7 24H23.3C23.7 24 24 23.7 24 23.3V0.7C24 0.3 23.7 0 23.3 0ZM22.6 1.4V5.6H1.4V1.4H22.6ZM1.4 22.6V7.1H22.6V22.6H1.4Z" fill="#222222"></path><path d="M3.49999 4.20005H17.6C18 4.20005 18.3 3.90005 18.3 3.50005C18.3 3.10005 18 2.80005 17.6 2.80005H3.49999C3.09999 2.80005 2.79999 3.10005 2.79999 3.50005C2.79999 3.90005 3.09999 4.20005 3.49999 4.20005Z" fill="#222222"></path><path d="M20.5 4.20005C20.8866 4.20005 21.2 3.88665 21.2 3.50005C21.2 3.11345 20.8866 2.80005 20.5 2.80005C20.1134 2.80005 19.8 3.11345 19.8 3.50005C19.8 3.88665 20.1134 4.20005 20.5 4.20005Z" fill="#222222"></path></svg>