<svg width="16px" height="14px" viewBox="0 0 16 14" version="1.1" xmlns="http://www.w3.org/2000/svg" xmlns:xlink="http://www.w3.org/1999/xlink"><title> 06 Icons + Badges/02 Utility Icon/02 Small</title><desc>Created with Sketch.</desc><g id="00-Components__MlIqNN2h" stroke="none" stroke-width="1" fill="none" fill-rule="evenodd"><g id="00-Components/05-Navigation/02-Footer/02📱Mobile---Tablet__MlIqNN2h" transform="translate(-328.000000, -107.000000)" fill="#6D7378"><g id="Social-links__MlIqNN2h" transform="translate(328.000000, 32.000000)"><g id="Twitter__MlIqNN2h" transform="translate(0.000000, 72.000000)"><g id="-06-Icons-+-Badges/02-Utility-Icon/01-Tiny__MlIqNN2h" transform="translate(0.000000, 2.000000)"><g id="-06-Icons-+-Badges/02-Utility-Icon/_/Social/Twitter__MlIqNN2h"><path d="M16,2.84884576 C15.4002726,3.11049516 14.765126,3.2819524 14.1152,3.35764576 C14.797396,2.95707044 15.3095582,2.32085111 15.5552,1.56884576 C14.9110025,1.94586881 14.2077936,2.21146536 13.4752,2.35444576 C12.8497934,1.70027667 11.9834221,1.3312881 11.0784,1.33364576 C10.0834143,1.31983971 9.13732155,1.7642361 8.5126567,2.53882052 C7.88799184,3.31340494 7.6541159,4.3321697 7.8784,5.30164576 C5.25175006,5.17424847 2.79944161,3.94925537 1.12,1.92564576 C0.828761224,2.4172874 0.67512747,2.9782164 0.6752,3.54964576 C0.677829794,4.6350509 1.22697608,5.64612965 2.136,6.23924576 C1.61518349,6.22243566 1.10555586,6.08379502 0.648,5.83444576 L0.648,5.87444576 C0.64832855,6.27561201 0.724886513,6.67306186 0.8736,7.04564576 C1.28470826,8.07596051 2.18895589,8.82849681 3.2768,9.04564576 C2.99424955,9.11987316 2.70333772,9.15751425 2.4112,9.15764576 C2.20445657,9.15743707 1.99819918,9.13761493 1.7952,9.09844576 C2.23672709,10.4210673 3.46655399,11.3196882 4.8608,11.3384458 C3.69306318,12.2393279 2.25885039,12.7262172 0.784,12.7224458 C0.522126105,12.7237046 0.260385958,12.7103505 0,12.6824458 C1.50653597,13.6318857 3.25124596,14.1350501 5.032,14.1336458 C9.41594458,14.219651 13.2431843,11.1800169 14.152,6.89044576 C14.2985379,6.25059211 14.3736637,5.59646073 14.376,4.94004576 C14.376,4.80084576 14.376,4.66004576 14.3664,4.52244576 C15.0063994,4.06648394 15.5596507,3.4996859 16,2.84884576 Z" id="Icon__MlIqNN2h"></path></g></g></g></g></g></g></svg>